<svg xmlns="http://www.w3.org/2000/svg" xmlns:svg="http://www.w3.org/2000/svg" id="svg2" width="24" height="24" fill="#FFF" version="1.1" viewBox="0 0 24 24"><metadata id="metadata12"/><path id="path4" fill="#fff" d="m 5,8 4,4 -3,0 c 0,3.31 2.69,6 6,6 1.01,0 1.97,-0.25 2.8,-0.7 l 1.46,1.46 C 15.03,19.54 13.57,20 12,20 7.58,20 4,16.42 4,12 L 1,12 5,8 Z m 13,4 C 18,8.69 15.31,6 12,6 10.99,6 10.03,6.25 9.2,6.7 L 7.74,5.24 C 8.97,4.46 10.43,4 12,4 c 4.42,0 8,3.58 8,8 l 3,0 -4,4 -4,-4 3,0 z"/><path id="path6" fill="none" d="M0 0h24v24H0z"/></svg>